<?xml version="1.0" encoding="iso-8859-1"?>
<!-- Generator: Adobe Illustrator 19.0.0, SVG Export Plug-In . SVG Version: 6.00 Build 0)  -->
<svg version="1.1" id="Layer_1" xmlns="http://www.w3.org/2000/svg" xmlns:xlink="http://www.w3.org/1999/xlink" x="0px" y="0px"
	 viewBox="0 0 512 512" style="enable-background:new 0 0 512 512;" xml:space="preserve">
<g>
	<g>
		<path d="M256,0c-52.928,0-96,43.072-96,96s43.072,96,96,96s96-43.072,96-96S308.928,0,256,0z M256,64c-17.643,0-32,14.357-32,32
			c0,5.888-4.779,10.667-10.667,10.667S202.667,101.888,202.667,96c0-29.397,23.915-53.333,53.333-53.333
			c5.888,0,10.667,4.779,10.667,10.667S261.888,64,256,64z"/>
	</g>
</g>
<g>
	<g>
		<path d="M350.976,176.789c-1.707-3.627-9.813-16-42.219-22.805c-5.675-1.195-11.392,2.475-12.629,8.256
			c-0.149,0.747-0.021,1.451-0.021,2.176h-80.213c0-0.725,0.149-1.451-0.021-2.176c-1.237-5.781-6.933-9.429-12.629-8.256
			c-32.427,6.805-40.512,19.179-42.219,22.805c-0.661,1.429-1.024,2.965-1.024,4.544v21.333c0,2.752,1.067,5.397,2.965,7.381
			c2.411,2.517,25.536,24.619,93.035,24.619s90.624-22.101,93.035-24.619c1.899-1.984,2.965-4.629,2.965-7.381v-21.333
			C352,179.755,351.637,178.219,350.976,176.789z"/>
	</g>
</g>
<g>
	<g>
		<path d="M371.563,410.133c-0.619-0.96-62.229-95.275-62.229-186.133c0-5.888-4.779-10.667-10.667-10.667S288,218.112,288,224h-64
			c0-5.888-4.779-10.667-10.667-10.667s-10.667,4.779-10.667,10.667c0,90.688-61.611,185.173-62.229,186.133
			c-3.008,4.544-2.112,10.624,2.112,14.101C145.472,426.645,173.653,448,256,448s110.528-21.355,113.451-23.787
			C373.675,420.736,374.571,414.677,371.563,410.133z"/>
	</g>
</g>
<g>
	<g>
		<path d="M310.059,387.136l-3.584-7.637c-1.749-3.755-5.525-6.165-9.664-6.165h-81.621c-4.139,0-7.915,2.411-9.664,6.165
			l-3.584,7.637c-1.472,3.072-1.408,6.656,0.192,9.664c1.579,2.987,4.523,5.056,7.893,5.547c13.653,1.984,29.141,2.987,45.973,2.987
			s32.32-1.003,45.973-2.987c3.371-0.469,6.315-2.56,7.893-5.547C311.467,393.792,311.531,390.208,310.059,387.136z"/>
	</g>
</g>
<g>
	<g>
		<path d="M415.829,419.115c0.064-1.216,0.107-2.432,0.085-3.648l-0.107-1.408c-0.811-5.568-5.824-9.621-11.371-9.131
			c-5.611,0.427-9.92,5.12-9.856,10.731c0.107,9.728-4.096,18.816-11.499,24.96c-5.781,4.821-39.168,28.715-127.083,28.715
			S134.699,445.44,128.939,440.64c-7.424-6.144-11.627-15.232-11.52-24.96c0.064-5.611-4.117-10.88-9.728-11.328
			c-5.952-0.363-10.453,3.008-11.243,8.555C96.171,413.845,96,415.04,96,416v42.667c0,2.197,0.683,4.352,1.941,6.144
			C99.285,466.731,132.544,512,256,512s156.715-45.269,158.059-47.189c1.259-1.792,1.941-3.947,1.941-6.144L415.829,419.115z"/>
	</g>
</g>
<g>
</g>
<g>
</g>
<g>
</g>
<g>
</g>
<g>
</g>
<g>
</g>
<g>
</g>
<g>
</g>
<g>
</g>
<g>
</g>
<g>
</g>
<g>
</g>
<g>
</g>
<g>
</g>
<g>
</g>
</svg>
